<?xml version="1.0" encoding="UTF-8"?>
<!DOCTYPE svg PUBLIC "-//W3C//DTD SVG 1.0//EN" "http://www.w3.org/TR/2001/REC-SVG-20010904/DTD/svg10.dtd">
<!-- Creator: CorelDRAW 2021 (64-Bit) -->
<svg xmlns="http://www.w3.org/2000/svg" xml:space="preserve" width="82.4568mm" height="122.155mm" version="1.0" style="shape-rendering:geometricPrecision; text-rendering:geometricPrecision; image-rendering:optimizeQuality; fill-rule:evenodd; clip-rule:evenodd"
viewBox="0 0 2177.62 3226.02"
 xmlns:xlink="http://www.w3.org/1999/xlink"
 xmlns:xodm="http://www.corel.com/coreldraw/odm/2003">
 <defs>
  <style type="text/css">
   <![CDATA[
    .fil0 {fill:#010101}
   ]]>
  </style>
 </defs>
 <g id="Capa_x0020_1">
  <metadata id="CorelCorpID_0Corel-Layer"/>
  <path class="fil0" d="M315.51 666.45c-110.72,57.15 -32.73,210.25 74.7,170.1 115.75,-43.26 44.86,-231.82 -74.7,-170.1z"/>
  <path class="fil0" d="M447.58 2318.33c33.56,109.67 226.39,56.28 173.74,-71.63 -40.63,-98.72 -212.46,-54.88 -173.74,71.63z"/>
  <path class="fil0" d="M1314.59 2309.01c34.53,106.67 223.43,57.55 173.82,-72.01 -37.66,-98.36 -215.41,-56.44 -173.82,72.01z"/>
  <path class="fil0" d="M4.35 2737.57c29.06,110.19 211.16,69.31 179.77,-54 -28.03,-110.12 -214.74,-78.57 -179.77,54z"/>
  <path class="fil0" d="M614.55 2737.57c48.47,-115.99 -132.08,-177.58 -173.73,-70.93 -49.17,125.89 128.91,178.19 173.73,70.93z"/>
  <path class="fil0" d="M642.34 2942.54c25.73,110.94 212.77,76.09 180.43,-51.08 -28.43,-111.83 -210.05,-76.63 -180.43,51.08z"/>
  <path class="fil0" d="M557.81 4.05c-116.83,32.99 -73.8,222.73 61.27,175.76 104.19,-36.23 53.66,-208.21 -61.27,-175.76z"/>
  <path class="fil0" d="M1404.64 1327.27c-108.06,52.27 -33.71,215.68 80.87,166.61 107.98,-46.24 40.31,-225.22 -80.87,-166.61z"/>
  <path class="fil0" d="M2048.65 1532.85c-117.11,53.03 -39.73,217.06 74.65,170.25 107.98,-44.19 40.28,-222.29 -74.65,-170.25z"/>
  <path class="fil0" d="M1032.47 2746.89c44.79,-118.25 -121.25,-178.63 -169.3,-77.44 -58.83,123.9 127.34,188.22 169.3,77.44z"/>
  <path class="fil0" d="M653.57 2532.61c39.33,108.32 220.28,54.15 172.76,-71.95 -39.7,-105.34 -216.8,-49.35 -172.76,71.95z"/>
  <path class="fil0" d="M539.73 452.75c-110.07,55.76 -39.05,213.85 80.18,166.31 106.06,-42.29 38.01,-226.18 -80.18,-166.31z"/>
  <path class="fil0" d="M1640.18 1104.91c-121.12,53.8 -41.68,220.52 74.04,170.46 99.61,-43.09 42.29,-222.14 -74.04,-170.46z"/>
  <path class="fil0" d="M745.6 1105.09c-118.83,56.51 -40.06,215.69 74.34,169.97 108.51,-43.36 37.55,-223.18 -74.34,-169.97z"/>
  <path class="fil0" d="M1193.06 676.2c-118.47,52.57 -47.24,211.35 67.21,172.96 108.95,-36.55 51.9,-225.82 -67.21,-172.96z"/>
  <path class="fil0" d="M957.62 1336.47c-106.95,49.4 -40.65,215.21 74.8,170.22 109.08,-42.51 47.71,-226.81 -74.8,-170.22z"/>
  <path class="fil0" d="M1850.34 1316.42c-120.98,38.77 -56.81,217.54 61.42,174.96 113.36,-40.82 54.15,-212 -61.42,-174.96z"/>
  <path class="fil0" d="M110.62 432.91c-117.59,35.98 -66.33,221.3 61.65,175.7 38.17,-13.6 71.52,-64.97 52.76,-118.41 -14.5,-41.28 -57.75,-74.63 -114.4,-57.29z"/>
  <path class="fil0" d="M947.83 1764.71c-103.65,53.7 -33.98,212.95 81.59,167.6 110.41,-43.32 35.94,-228.5 -81.59,-167.6z"/>
  <path class="fil0" d="M1394.15 1754.33c-116.59,38.96 -58.54,216.28 61.43,175.37 110.51,-37.69 58.28,-215.38 -61.43,-175.37z"/>
  <path class="fil0" d="M967.6 452.24c-109.26,54.89 -37.84,214.58 80.53,166.36 102.48,-41.75 40.21,-227.02 -80.53,-166.36z"/>
  <path class="fil0" d="M739.75 671.34c-114.26,72.55 -11.4,210.56 91.78,159.06 98.87,-49.35 24.69,-233.01 -91.78,-159.06z"/>
  <path class="fil0" d="M762.52 237.48c-107.76,51.45 -40.48,213.81 74.71,170.29 105.19,-39.75 49.05,-229.37 -74.71,-170.29z"/>
  <path class="fil0" d="M876.97 2299.7c18.59,108.96 202.88,94.09 183.6,-36.45 -16.59,-112.32 -205.94,-94.56 -183.6,36.45z"/>
  <path class="fil0" d="M1592.58 1971.13c-115.86,57.25 -37.54,217.24 80.58,167.32 98.98,-41.83 34.22,-224.05 -80.58,-167.32z"/>
  <path class="fil0" d="M1174.39 1970.84c-124.74,35.25 -73.99,212.72 52.53,177.97 105.94,-29.09 64.78,-211.12 -52.53,-177.97z"/>
  <path class="fil0" d="M1399.34 911.52c-113.63,66.38 -6.22,214.16 92.4,160 97.38,-53.48 27.78,-230.2 -92.4,-160z"/>
  <path class="fil0" d="M1836.3 1747.35c-122.47,29.95 -78.25,206.17 44.2,179.79 113.08,-24.35 78.59,-209.82 -44.2,-179.79z"/>
  <path class="fil0" d="M1206.61 1107.17c-33.43,11.62 -39.55,11.45 -56.39,42.21 -41.19,75.26 26.5,159.37 114.01,132.71 105.53,-32.15 59.85,-215.75 -57.62,-174.92z"/>
  <path class="fil0" d="M1184.4 1543.55c-122.91,58.33 -38.68,213.97 72.62,169.73 107.87,-42.87 38.63,-222.52 -72.62,-169.73z"/>
  <path class="fil0" d="M970.11 891.39c-121.51,50.94 -41,218.88 72.71,168.98 106.48,-46.73 41.53,-216.88 -72.71,-168.98z"/>
  <path class="fil0" d="M1625.31 1535.81c-125.62,45.52 -60.7,210.19 58.14,174.85 109.93,-32.69 57.97,-216.93 -58.14,-174.85z"/>
  <path class="fil0" d="M520.55 880.95c-107.03,57.75 -33.86,211.74 80.63,166.36 108.69,-43.09 35.96,-229.27 -80.63,-166.36z"/>
  <path class="fil0" d="M728.62 1982.09c-120.46,57.38 -39.64,212.06 72,169 110.51,-42.63 41.24,-222.93 -72,-169z"/>
  <path class="fil0" d="M234.45 2523.29c35.49,111.29 222.88,52.76 172.25,-71.53 -40.13,-98.51 -211.88,-52.72 -172.25,71.53z"/>
  <path class="fil0" d="M411.92 3147.5c11.62,108.62 192.72,106.53 185.37,-18.71 -7.44,-126.78 -198.74,-106.28 -185.37,18.71z"/>
  <path class="fil0" d="M1082.5 2513.98c21.55,104.41 199.62,93.11 183.45,-36.31 -14.3,-114.51 -210.38,-94.14 -183.45,36.31z"/>
  <path class="fil0" d="M330.04 222.61c-132.79,51.47 -37.33,224.45 72.04,169.02 95.52,-48.41 40.77,-212.75 -72.04,-169.02z"/>
  <path class="fil0" d="M207.56 2942.54c18.32,102.31 202.55,92.3 183.52,-37.07 -16.35,-111.11 -206.95,-93.81 -183.52,37.07z"/>
 </g>
</svg>
